<mxfile host="app.diagrams.net" modified="2023-04-15T22:49:17.670Z" agent="Mozilla/5.0 (Windows NT 10.0; Win64; x64) AppleWebKit/537.36 (KHTML, like Gecko) Chrome/111.0.0.0 Safari/537.36 OPR/97.0.0.0" etag="InhUGwhwPK1GPcjMcn-h" version="21.1.8" type="device">
  <diagram name="Página-1" id="3aZCR5i-9Z58xMW_NRaM">
    <mxGraphModel dx="1944" dy="1388" grid="0" gridSize="10" guides="1" tooltips="1" connect="1" arrows="1" fold="1" page="0" pageScale="1" pageWidth="827" pageHeight="1169" background="none" math="0" shadow="1">
      <root>
        <mxCell id="0" />
        <mxCell id="1" parent="0" />
        <mxCell id="zFpNvDhwyOPX7l_msYlm-46" value="" style="rounded=0;whiteSpace=wrap;html=1;fillColor=#dae8fc;strokeColor=#6c8ebf;movable=0;resizable=0;rotatable=0;deletable=0;editable=0;locked=1;connectable=0;" vertex="1" parent="1">
          <mxGeometry x="680" y="-220" width="270" height="870" as="geometry" />
        </mxCell>
        <mxCell id="zFpNvDhwyOPX7l_msYlm-63" value="" style="rounded=0;whiteSpace=wrap;html=1;fillColor=#dae8fc;strokeColor=#6c8ebf;movable=0;resizable=0;rotatable=0;deletable=0;editable=0;locked=1;connectable=0;" vertex="1" parent="1">
          <mxGeometry x="160" y="470" width="790" height="180" as="geometry" />
        </mxCell>
        <mxCell id="zFpNvDhwyOPX7l_msYlm-42" value="" style="rounded=0;whiteSpace=wrap;html=1;fillColor=#d5e8d4;strokeColor=#82b366;" vertex="1" parent="1">
          <mxGeometry x="-50" y="20" width="160" height="400" as="geometry" />
        </mxCell>
        <mxCell id="zFpNvDhwyOPX7l_msYlm-28" value="" style="rounded=0;whiteSpace=wrap;html=1;fillColor=#fff2cc;strokeColor=#d6b656;" vertex="1" parent="1">
          <mxGeometry x="170" y="10" width="460" height="410" as="geometry" />
        </mxCell>
        <mxCell id="zFpNvDhwyOPX7l_msYlm-30" style="edgeStyle=orthogonalEdgeStyle;curved=1;rounded=0;orthogonalLoop=1;jettySize=auto;html=1;startArrow=classic;startFill=1;" edge="1" parent="1">
          <mxGeometry relative="1" as="geometry">
            <mxPoint x="160" y="195.0000000000001" as="targetPoint" />
            <mxPoint x="120" y="195" as="sourcePoint" />
            <Array as="points">
              <mxPoint x="120" y="195" />
              <mxPoint x="120" y="195" />
            </Array>
          </mxGeometry>
        </mxCell>
        <mxCell id="zFpNvDhwyOPX7l_msYlm-45" style="edgeStyle=orthogonalEdgeStyle;curved=1;rounded=0;orthogonalLoop=1;jettySize=auto;html=1;startArrow=classic;startFill=1;" edge="1" parent="1" source="zFpNvDhwyOPX7l_msYlm-2" target="zFpNvDhwyOPX7l_msYlm-40">
          <mxGeometry relative="1" as="geometry" />
        </mxCell>
        <mxCell id="zFpNvDhwyOPX7l_msYlm-2" value="" style="verticalLabelPosition=bottom;sketch=0;aspect=fixed;html=1;verticalAlign=top;strokeColor=none;align=center;outlineConnect=0;shape=mxgraph.citrix.desktop_web;" vertex="1" parent="1">
          <mxGeometry x="-4" y="169.38" width="68" height="80" as="geometry" />
        </mxCell>
        <mxCell id="zFpNvDhwyOPX7l_msYlm-20" style="edgeStyle=orthogonalEdgeStyle;curved=1;rounded=0;orthogonalLoop=1;jettySize=auto;html=1;startArrow=classic;startFill=1;fillColor=#dae8fc;strokeColor=#BF040A;" edge="1" parent="1" source="zFpNvDhwyOPX7l_msYlm-5">
          <mxGeometry relative="1" as="geometry">
            <mxPoint x="405" y="260" as="targetPoint" />
          </mxGeometry>
        </mxCell>
        <mxCell id="zFpNvDhwyOPX7l_msYlm-5" value="" style="verticalLabelPosition=bottom;sketch=0;aspect=fixed;html=1;verticalAlign=top;strokeColor=none;align=center;outlineConnect=0;shape=mxgraph.citrix.database_server;" vertex="1" parent="1">
          <mxGeometry x="360" y="280" width="90" height="101.25" as="geometry" />
        </mxCell>
        <mxCell id="zFpNvDhwyOPX7l_msYlm-26" style="edgeStyle=orthogonalEdgeStyle;curved=1;rounded=0;orthogonalLoop=1;jettySize=auto;html=1;startArrow=classic;startFill=1;fillColor=#dae8fc;strokeColor=#BF040A;" edge="1" parent="1" source="zFpNvDhwyOPX7l_msYlm-6">
          <mxGeometry relative="1" as="geometry">
            <mxPoint x="330" y="209.375" as="targetPoint" />
          </mxGeometry>
        </mxCell>
        <mxCell id="zFpNvDhwyOPX7l_msYlm-6" value="" style="verticalLabelPosition=bottom;sketch=0;aspect=fixed;html=1;verticalAlign=top;strokeColor=none;align=center;outlineConnect=0;shape=mxgraph.citrix.database_server;" vertex="1" parent="1">
          <mxGeometry x="200" y="158.75" width="90" height="101.25" as="geometry" />
        </mxCell>
        <mxCell id="zFpNvDhwyOPX7l_msYlm-24" style="edgeStyle=orthogonalEdgeStyle;curved=1;rounded=0;orthogonalLoop=1;jettySize=auto;html=1;startArrow=classic;startFill=1;fillColor=#dae8fc;strokeColor=#BF040A;" edge="1" parent="1" source="zFpNvDhwyOPX7l_msYlm-9">
          <mxGeometry relative="1" as="geometry">
            <mxPoint x="405" y="150" as="targetPoint" />
          </mxGeometry>
        </mxCell>
        <mxCell id="zFpNvDhwyOPX7l_msYlm-9" value="" style="verticalLabelPosition=bottom;sketch=0;aspect=fixed;html=1;verticalAlign=top;strokeColor=none;align=center;outlineConnect=0;shape=mxgraph.citrix.database_server;" vertex="1" parent="1">
          <mxGeometry x="360" y="30" width="90" height="101.25" as="geometry" />
        </mxCell>
        <mxCell id="zFpNvDhwyOPX7l_msYlm-25" style="edgeStyle=orthogonalEdgeStyle;curved=1;rounded=0;orthogonalLoop=1;jettySize=auto;html=1;startArrow=classic;startFill=1;fillColor=#dae8fc;strokeColor=#BF040A;" edge="1" parent="1" source="zFpNvDhwyOPX7l_msYlm-10">
          <mxGeometry relative="1" as="geometry">
            <mxPoint x="350" y="150" as="targetPoint" />
          </mxGeometry>
        </mxCell>
        <mxCell id="zFpNvDhwyOPX7l_msYlm-10" value="" style="verticalLabelPosition=bottom;sketch=0;aspect=fixed;html=1;verticalAlign=top;strokeColor=none;align=center;outlineConnect=0;shape=mxgraph.citrix.database_server;" vertex="1" parent="1">
          <mxGeometry x="200" y="30" width="90" height="101.25" as="geometry" />
        </mxCell>
        <mxCell id="zFpNvDhwyOPX7l_msYlm-19" style="edgeStyle=orthogonalEdgeStyle;curved=1;rounded=0;orthogonalLoop=1;jettySize=auto;html=1;startArrow=classic;startFill=1;fillColor=#dae8fc;strokeColor=#BF040A;" edge="1" parent="1" source="zFpNvDhwyOPX7l_msYlm-11">
          <mxGeometry relative="1" as="geometry">
            <mxPoint x="350" y="260" as="targetPoint" />
          </mxGeometry>
        </mxCell>
        <mxCell id="zFpNvDhwyOPX7l_msYlm-11" value="" style="verticalLabelPosition=bottom;sketch=0;aspect=fixed;html=1;verticalAlign=top;strokeColor=none;align=center;outlineConnect=0;shape=mxgraph.citrix.database_server;" vertex="1" parent="1">
          <mxGeometry x="200" y="280" width="90" height="101.25" as="geometry" />
        </mxCell>
        <mxCell id="zFpNvDhwyOPX7l_msYlm-23" style="edgeStyle=orthogonalEdgeStyle;curved=1;rounded=0;orthogonalLoop=1;jettySize=auto;html=1;startArrow=classic;startFill=1;fillColor=#dae8fc;strokeColor=#BF040A;" edge="1" parent="1" source="zFpNvDhwyOPX7l_msYlm-12">
          <mxGeometry relative="1" as="geometry">
            <mxPoint x="470" y="160" as="targetPoint" />
          </mxGeometry>
        </mxCell>
        <mxCell id="zFpNvDhwyOPX7l_msYlm-12" value="" style="verticalLabelPosition=bottom;sketch=0;aspect=fixed;html=1;verticalAlign=top;strokeColor=none;align=center;outlineConnect=0;shape=mxgraph.citrix.database_server;" vertex="1" parent="1">
          <mxGeometry x="520" y="30" width="90" height="101.25" as="geometry" />
        </mxCell>
        <mxCell id="zFpNvDhwyOPX7l_msYlm-22" style="edgeStyle=orthogonalEdgeStyle;curved=1;rounded=0;orthogonalLoop=1;jettySize=auto;html=1;startArrow=classic;startFill=1;fillColor=#dae8fc;strokeColor=#BF040A;" edge="1" parent="1" source="zFpNvDhwyOPX7l_msYlm-13">
          <mxGeometry relative="1" as="geometry">
            <mxPoint x="480" y="209.375" as="targetPoint" />
          </mxGeometry>
        </mxCell>
        <mxCell id="zFpNvDhwyOPX7l_msYlm-13" value="" style="verticalLabelPosition=bottom;sketch=0;aspect=fixed;html=1;verticalAlign=top;strokeColor=none;align=center;outlineConnect=0;shape=mxgraph.citrix.database_server;" vertex="1" parent="1">
          <mxGeometry x="520" y="158.75" width="90" height="101.25" as="geometry" />
        </mxCell>
        <mxCell id="zFpNvDhwyOPX7l_msYlm-21" style="edgeStyle=orthogonalEdgeStyle;curved=1;rounded=0;orthogonalLoop=1;jettySize=auto;html=1;startArrow=classic;startFill=1;fillColor=#dae8fc;strokeColor=#BF040A;" edge="1" parent="1" source="zFpNvDhwyOPX7l_msYlm-14">
          <mxGeometry relative="1" as="geometry">
            <mxPoint x="460" y="260" as="targetPoint" />
          </mxGeometry>
        </mxCell>
        <mxCell id="zFpNvDhwyOPX7l_msYlm-14" value="" style="verticalLabelPosition=bottom;sketch=0;aspect=fixed;html=1;verticalAlign=top;strokeColor=none;align=center;outlineConnect=0;shape=mxgraph.citrix.database_server;" vertex="1" parent="1">
          <mxGeometry x="520" y="280" width="90" height="101.25" as="geometry" />
        </mxCell>
        <mxCell id="zFpNvDhwyOPX7l_msYlm-15" value="Região de memória compartilhada" style="rounded=0;whiteSpace=wrap;html=1;fontStyle=1;fontSize=19;fillColor=#D2FF9E;strokeColor=#8FD63E;" vertex="1" parent="1">
          <mxGeometry x="336.25" y="164.38" width="137.5" height="75.62" as="geometry" />
        </mxCell>
        <mxCell id="zFpNvDhwyOPX7l_msYlm-29" value="Aplicação DSM" style="rounded=0;whiteSpace=wrap;html=1;fillColor=#e1d5e7;strokeColor=#9673a6;" vertex="1" parent="1">
          <mxGeometry x="170" y="390" width="460" height="30" as="geometry" />
        </mxCell>
        <mxCell id="zFpNvDhwyOPX7l_msYlm-31" style="edgeStyle=orthogonalEdgeStyle;curved=1;rounded=0;orthogonalLoop=1;jettySize=auto;html=1;startArrow=classic;startFill=1;" edge="1" parent="1">
          <mxGeometry relative="1" as="geometry">
            <mxPoint x="160" y="80.63000000000011" as="targetPoint" />
            <mxPoint x="120" y="80.63" as="sourcePoint" />
            <Array as="points">
              <mxPoint x="120" y="80.63" />
              <mxPoint x="120" y="80.63" />
            </Array>
          </mxGeometry>
        </mxCell>
        <mxCell id="zFpNvDhwyOPX7l_msYlm-44" style="edgeStyle=orthogonalEdgeStyle;curved=1;rounded=0;orthogonalLoop=1;jettySize=auto;html=1;startArrow=classic;startFill=1;" edge="1" parent="1" source="zFpNvDhwyOPX7l_msYlm-35" target="zFpNvDhwyOPX7l_msYlm-2">
          <mxGeometry relative="1" as="geometry" />
        </mxCell>
        <mxCell id="zFpNvDhwyOPX7l_msYlm-35" value="" style="verticalLabelPosition=bottom;sketch=0;aspect=fixed;html=1;verticalAlign=top;strokeColor=none;align=center;outlineConnect=0;shape=mxgraph.citrix.laptop_2;" vertex="1" parent="1">
          <mxGeometry x="-23.64" y="40.63" width="107.28" height="80" as="geometry" />
        </mxCell>
        <mxCell id="zFpNvDhwyOPX7l_msYlm-41" style="edgeStyle=orthogonalEdgeStyle;curved=1;rounded=0;orthogonalLoop=1;jettySize=auto;html=1;startArrow=classic;startFill=1;" edge="1" parent="1">
          <mxGeometry relative="1" as="geometry">
            <mxPoint x="160" y="319" as="targetPoint" />
            <mxPoint x="120" y="319" as="sourcePoint" />
            <Array as="points">
              <mxPoint x="156.25" y="319" />
            </Array>
          </mxGeometry>
        </mxCell>
        <mxCell id="zFpNvDhwyOPX7l_msYlm-40" value="" style="verticalLabelPosition=bottom;sketch=0;aspect=fixed;html=1;verticalAlign=top;strokeColor=none;align=center;outlineConnect=0;shape=mxgraph.citrix.command_center;" vertex="1" parent="1">
          <mxGeometry x="-7.75" y="280" width="75.5" height="96" as="geometry" />
        </mxCell>
        <mxCell id="zFpNvDhwyOPX7l_msYlm-43" value="Aplicações consumidoras de dados" style="rounded=0;whiteSpace=wrap;html=1;fillColor=#e1d5e7;strokeColor=#9673a6;" vertex="1" parent="1">
          <mxGeometry x="-50" y="390" width="160" height="30" as="geometry" />
        </mxCell>
        <mxCell id="zFpNvDhwyOPX7l_msYlm-47" value="Usinas de informação" style="rounded=0;whiteSpace=wrap;html=1;fillColor=#e1d5e7;strokeColor=#9673a6;movable=0;resizable=0;rotatable=0;deletable=0;editable=0;locked=1;connectable=0;" vertex="1" parent="1">
          <mxGeometry x="160" y="620" width="790" height="30" as="geometry" />
        </mxCell>
        <mxCell id="zFpNvDhwyOPX7l_msYlm-50" value="" style="fontColor=#0066CC;verticalAlign=top;verticalLabelPosition=bottom;labelPosition=center;align=center;html=1;outlineConnect=0;fillColor=#CCCCCC;strokeColor=#6881B3;gradientColor=none;gradientDirection=north;strokeWidth=2;shape=mxgraph.networks.radio_tower;" vertex="1" parent="1">
          <mxGeometry x="730" y="20" width="45" height="70" as="geometry" />
        </mxCell>
        <mxCell id="zFpNvDhwyOPX7l_msYlm-51" value="" style="fontColor=#0066CC;verticalAlign=top;verticalLabelPosition=bottom;labelPosition=center;align=center;html=1;outlineConnect=0;fillColor=#CCCCCC;strokeColor=#6881B3;gradientColor=none;gradientDirection=north;strokeWidth=2;shape=mxgraph.networks.radio_tower;" vertex="1" parent="1">
          <mxGeometry x="810" y="61.25" width="50" height="70" as="geometry" />
        </mxCell>
        <mxCell id="zFpNvDhwyOPX7l_msYlm-52" value="" style="fontColor=#0066CC;verticalAlign=top;verticalLabelPosition=bottom;labelPosition=center;align=center;html=1;outlineConnect=0;fillColor=#CCCCCC;strokeColor=#6881B3;gradientColor=none;gradientDirection=north;strokeWidth=2;shape=mxgraph.networks.radio_tower;" vertex="1" parent="1">
          <mxGeometry x="870" y="20" width="45" height="70" as="geometry" />
        </mxCell>
        <mxCell id="zFpNvDhwyOPX7l_msYlm-53" value="" style="fontColor=#0066CC;verticalAlign=top;verticalLabelPosition=bottom;labelPosition=center;align=center;html=1;outlineConnect=0;fillColor=#CCCCCC;strokeColor=#6881B3;gradientColor=none;gradientDirection=north;strokeWidth=2;shape=mxgraph.networks.radio_tower;" vertex="1" parent="1">
          <mxGeometry x="750" y="99.38" width="50" height="70" as="geometry" />
        </mxCell>
        <mxCell id="zFpNvDhwyOPX7l_msYlm-54" value="" style="fontColor=#0066CC;verticalAlign=top;verticalLabelPosition=bottom;labelPosition=center;align=center;html=1;outlineConnect=0;fillColor=#CCCCCC;strokeColor=#6881B3;gradientColor=none;gradientDirection=north;strokeWidth=2;shape=mxgraph.networks.radio_tower;" vertex="1" parent="1">
          <mxGeometry x="806" y="150" width="45" height="70" as="geometry" />
        </mxCell>
        <mxCell id="zFpNvDhwyOPX7l_msYlm-55" value="" style="fontColor=#0066CC;verticalAlign=top;verticalLabelPosition=bottom;labelPosition=center;align=center;html=1;outlineConnect=0;fillColor=#CCCCCC;strokeColor=#6881B3;gradientColor=none;gradientDirection=north;strokeWidth=2;shape=mxgraph.networks.radio_tower;" vertex="1" parent="1">
          <mxGeometry x="765" y="170" width="45" height="70" as="geometry" />
        </mxCell>
        <mxCell id="zFpNvDhwyOPX7l_msYlm-56" value="" style="fontColor=#0066CC;verticalAlign=top;verticalLabelPosition=bottom;labelPosition=center;align=center;html=1;outlineConnect=0;fillColor=#CCCCCC;strokeColor=#6881B3;gradientColor=none;gradientDirection=north;strokeWidth=2;shape=mxgraph.networks.radio_tower;" vertex="1" parent="1">
          <mxGeometry x="730" y="260" width="45" height="70" as="geometry" />
        </mxCell>
        <mxCell id="zFpNvDhwyOPX7l_msYlm-59" value="" style="fontColor=#0066CC;verticalAlign=top;verticalLabelPosition=bottom;labelPosition=center;align=center;html=1;outlineConnect=0;fillColor=#CCCCCC;strokeColor=#6881B3;gradientColor=none;gradientDirection=north;strokeWidth=2;shape=mxgraph.networks.radio_tower;" vertex="1" parent="1">
          <mxGeometry x="880" y="120.63" width="45" height="70" as="geometry" />
        </mxCell>
        <mxCell id="zFpNvDhwyOPX7l_msYlm-60" value="" style="fontColor=#0066CC;verticalAlign=top;verticalLabelPosition=bottom;labelPosition=center;align=center;html=1;outlineConnect=0;fillColor=#CCCCCC;strokeColor=#6881B3;gradientColor=none;gradientDirection=north;strokeWidth=2;shape=mxgraph.networks.radio_tower;" vertex="1" parent="1">
          <mxGeometry x="685" y="293" width="45" height="70" as="geometry" />
        </mxCell>
        <mxCell id="zFpNvDhwyOPX7l_msYlm-61" value="" style="fontColor=#0066CC;verticalAlign=top;verticalLabelPosition=bottom;labelPosition=center;align=center;html=1;outlineConnect=0;fillColor=#CCCCCC;strokeColor=#6881B3;gradientColor=none;gradientDirection=north;strokeWidth=2;shape=mxgraph.networks.radio_tower;" vertex="1" parent="1">
          <mxGeometry x="905" y="230" width="45" height="70" as="geometry" />
        </mxCell>
        <mxCell id="zFpNvDhwyOPX7l_msYlm-62" value="" style="rounded=0;whiteSpace=wrap;html=1;fillColor=#dae8fc;strokeColor=#6c8ebf;movable=0;resizable=0;rotatable=0;deletable=0;editable=0;locked=1;connectable=0;" vertex="1" parent="1">
          <mxGeometry x="160" y="-220" width="790" height="180" as="geometry" />
        </mxCell>
        <mxCell id="zFpNvDhwyOPX7l_msYlm-64" value="" style="fontColor=#0066CC;verticalAlign=top;verticalLabelPosition=bottom;labelPosition=center;align=center;html=1;outlineConnect=0;fillColor=#CCCCCC;strokeColor=#6881B3;gradientColor=none;gradientDirection=north;strokeWidth=2;shape=mxgraph.networks.radio_tower;" vertex="1" parent="1">
          <mxGeometry x="775" y="350" width="45" height="70" as="geometry" />
        </mxCell>
        <mxCell id="zFpNvDhwyOPX7l_msYlm-65" value="" style="fontColor=#0066CC;verticalAlign=top;verticalLabelPosition=bottom;labelPosition=center;align=center;html=1;outlineConnect=0;fillColor=#CCCCCC;strokeColor=#6881B3;gradientColor=none;gradientDirection=north;strokeWidth=2;shape=mxgraph.networks.radio_tower;" vertex="1" parent="1">
          <mxGeometry x="860" y="370" width="45" height="70" as="geometry" />
        </mxCell>
        <mxCell id="zFpNvDhwyOPX7l_msYlm-66" value="" style="fontColor=#0066CC;verticalAlign=top;verticalLabelPosition=bottom;labelPosition=center;align=center;html=1;outlineConnect=0;fillColor=#CCCCCC;strokeColor=#6881B3;gradientColor=none;gradientDirection=north;strokeWidth=2;shape=mxgraph.networks.radio_tower;" vertex="1" parent="1">
          <mxGeometry x="720" y="376" width="45" height="70" as="geometry" />
        </mxCell>
        <mxCell id="zFpNvDhwyOPX7l_msYlm-67" value="" style="fontColor=#0066CC;verticalAlign=top;verticalLabelPosition=bottom;labelPosition=center;align=center;html=1;outlineConnect=0;fillColor=#CCCCCC;strokeColor=#6881B3;gradientColor=none;gradientDirection=north;strokeWidth=2;shape=mxgraph.networks.radio_tower;" vertex="1" parent="1">
          <mxGeometry x="180" y="470" width="45" height="70" as="geometry" />
        </mxCell>
        <mxCell id="zFpNvDhwyOPX7l_msYlm-69" value="" style="fontColor=#0066CC;verticalAlign=top;verticalLabelPosition=bottom;labelPosition=center;align=center;html=1;outlineConnect=0;fillColor=#CCCCCC;strokeColor=#6881B3;gradientColor=none;gradientDirection=north;strokeWidth=2;shape=mxgraph.networks.radio_tower;" vertex="1" parent="1">
          <mxGeometry x="245" y="480" width="45" height="70" as="geometry" />
        </mxCell>
        <mxCell id="zFpNvDhwyOPX7l_msYlm-70" value="" style="fontColor=#0066CC;verticalAlign=top;verticalLabelPosition=bottom;labelPosition=center;align=center;html=1;outlineConnect=0;fillColor=#CCCCCC;strokeColor=#6881B3;gradientColor=none;gradientDirection=north;strokeWidth=2;shape=mxgraph.networks.radio_tower;" vertex="1" parent="1">
          <mxGeometry x="200" y="540" width="45" height="70" as="geometry" />
        </mxCell>
        <mxCell id="zFpNvDhwyOPX7l_msYlm-71" value="" style="fontColor=#0066CC;verticalAlign=top;verticalLabelPosition=bottom;labelPosition=center;align=center;html=1;outlineConnect=0;fillColor=#CCCCCC;strokeColor=#6881B3;gradientColor=none;gradientDirection=north;strokeWidth=2;shape=mxgraph.networks.radio_tower;" vertex="1" parent="1">
          <mxGeometry x="336.25" y="550" width="45" height="70" as="geometry" />
        </mxCell>
        <mxCell id="zFpNvDhwyOPX7l_msYlm-72" value="" style="fontColor=#0066CC;verticalAlign=top;verticalLabelPosition=bottom;labelPosition=center;align=center;html=1;outlineConnect=0;fillColor=#CCCCCC;strokeColor=#6881B3;gradientColor=none;gradientDirection=north;strokeWidth=2;shape=mxgraph.networks.radio_tower;" vertex="1" parent="1">
          <mxGeometry x="377.5" y="480" width="45" height="70" as="geometry" />
        </mxCell>
        <mxCell id="zFpNvDhwyOPX7l_msYlm-73" value="" style="fontColor=#0066CC;verticalAlign=top;verticalLabelPosition=bottom;labelPosition=center;align=center;html=1;outlineConnect=0;fillColor=#CCCCCC;strokeColor=#6881B3;gradientColor=none;gradientDirection=north;strokeWidth=2;shape=mxgraph.networks.radio_tower;" vertex="1" parent="1">
          <mxGeometry x="422.5" y="525" width="45" height="70" as="geometry" />
        </mxCell>
        <mxCell id="zFpNvDhwyOPX7l_msYlm-74" value="" style="fontColor=#0066CC;verticalAlign=top;verticalLabelPosition=bottom;labelPosition=center;align=center;html=1;outlineConnect=0;fillColor=#CCCCCC;strokeColor=#6881B3;gradientColor=none;gradientDirection=north;strokeWidth=2;shape=mxgraph.networks.radio_tower;" vertex="1" parent="1">
          <mxGeometry x="473.75" y="490" width="45" height="70" as="geometry" />
        </mxCell>
        <mxCell id="zFpNvDhwyOPX7l_msYlm-75" value="" style="fontColor=#0066CC;verticalAlign=top;verticalLabelPosition=bottom;labelPosition=center;align=center;html=1;outlineConnect=0;fillColor=#CCCCCC;strokeColor=#6881B3;gradientColor=none;gradientDirection=north;strokeWidth=2;shape=mxgraph.networks.radio_tower;" vertex="1" parent="1">
          <mxGeometry x="585" y="540" width="45" height="70" as="geometry" />
        </mxCell>
        <mxCell id="zFpNvDhwyOPX7l_msYlm-76" value="" style="fontColor=#0066CC;verticalAlign=top;verticalLabelPosition=bottom;labelPosition=center;align=center;html=1;outlineConnect=0;fillColor=#CCCCCC;strokeColor=#6881B3;gradientColor=none;gradientDirection=north;strokeWidth=2;shape=mxgraph.networks.radio_tower;" vertex="1" parent="1">
          <mxGeometry x="530" y="480" width="45" height="70" as="geometry" />
        </mxCell>
        <mxCell id="zFpNvDhwyOPX7l_msYlm-77" value="" style="fontColor=#0066CC;verticalAlign=top;verticalLabelPosition=bottom;labelPosition=center;align=center;html=1;outlineConnect=0;fillColor=#CCCCCC;strokeColor=#6881B3;gradientColor=none;gradientDirection=north;strokeWidth=2;shape=mxgraph.networks.radio_tower;" vertex="1" parent="1">
          <mxGeometry x="520" y="550" width="45" height="70" as="geometry" />
        </mxCell>
        <mxCell id="zFpNvDhwyOPX7l_msYlm-78" value="" style="fontColor=#0066CC;verticalAlign=top;verticalLabelPosition=bottom;labelPosition=center;align=center;html=1;outlineConnect=0;fillColor=#CCCCCC;strokeColor=#6881B3;gradientColor=none;gradientDirection=north;strokeWidth=2;shape=mxgraph.networks.radio_tower;" vertex="1" parent="1">
          <mxGeometry x="635" y="490" width="45" height="70" as="geometry" />
        </mxCell>
        <mxCell id="zFpNvDhwyOPX7l_msYlm-79" value="" style="fontColor=#0066CC;verticalAlign=top;verticalLabelPosition=bottom;labelPosition=center;align=center;html=1;outlineConnect=0;fillColor=#CCCCCC;strokeColor=#6881B3;gradientColor=none;gradientDirection=north;strokeWidth=2;shape=mxgraph.networks.radio_tower;" vertex="1" parent="1">
          <mxGeometry x="685" y="540" width="45" height="70" as="geometry" />
        </mxCell>
        <mxCell id="zFpNvDhwyOPX7l_msYlm-80" value="" style="fontColor=#0066CC;verticalAlign=top;verticalLabelPosition=bottom;labelPosition=center;align=center;html=1;outlineConnect=0;fillColor=#CCCCCC;strokeColor=#6881B3;gradientColor=none;gradientDirection=north;strokeWidth=2;shape=mxgraph.networks.radio_tower;" vertex="1" parent="1">
          <mxGeometry x="745" y="530" width="45" height="70" as="geometry" />
        </mxCell>
        <mxCell id="zFpNvDhwyOPX7l_msYlm-81" value="" style="fontColor=#0066CC;verticalAlign=top;verticalLabelPosition=bottom;labelPosition=center;align=center;html=1;outlineConnect=0;fillColor=#CCCCCC;strokeColor=#6881B3;gradientColor=none;gradientDirection=north;strokeWidth=2;shape=mxgraph.networks.radio_tower;" vertex="1" parent="1">
          <mxGeometry x="705" y="460" width="45" height="70" as="geometry" />
        </mxCell>
        <mxCell id="zFpNvDhwyOPX7l_msYlm-82" value="" style="fontColor=#0066CC;verticalAlign=top;verticalLabelPosition=bottom;labelPosition=center;align=center;html=1;outlineConnect=0;fillColor=#CCCCCC;strokeColor=#6881B3;gradientColor=none;gradientDirection=north;strokeWidth=2;shape=mxgraph.networks.radio_tower;" vertex="1" parent="1">
          <mxGeometry x="755" y="455" width="45" height="70" as="geometry" />
        </mxCell>
        <mxCell id="zFpNvDhwyOPX7l_msYlm-83" value="" style="fontColor=#0066CC;verticalAlign=top;verticalLabelPosition=bottom;labelPosition=center;align=center;html=1;outlineConnect=0;fillColor=#CCCCCC;strokeColor=#6881B3;gradientColor=none;gradientDirection=north;strokeWidth=2;shape=mxgraph.networks.radio_tower;" vertex="1" parent="1">
          <mxGeometry x="806" y="430" width="45" height="70" as="geometry" />
        </mxCell>
        <mxCell id="zFpNvDhwyOPX7l_msYlm-84" value="" style="fontColor=#0066CC;verticalAlign=top;verticalLabelPosition=bottom;labelPosition=center;align=center;html=1;outlineConnect=0;fillColor=#CCCCCC;strokeColor=#6881B3;gradientColor=none;gradientDirection=north;strokeWidth=2;shape=mxgraph.networks.radio_tower;" vertex="1" parent="1">
          <mxGeometry x="810" y="550" width="45" height="70" as="geometry" />
        </mxCell>
        <mxCell id="zFpNvDhwyOPX7l_msYlm-85" value="" style="fontColor=#0066CC;verticalAlign=top;verticalLabelPosition=bottom;labelPosition=center;align=center;html=1;outlineConnect=0;fillColor=#CCCCCC;strokeColor=#6881B3;gradientColor=none;gradientDirection=north;strokeWidth=2;shape=mxgraph.networks.radio_tower;" vertex="1" parent="1">
          <mxGeometry x="860" y="510" width="45" height="70" as="geometry" />
        </mxCell>
        <mxCell id="zFpNvDhwyOPX7l_msYlm-86" value="" style="fontColor=#0066CC;verticalAlign=top;verticalLabelPosition=bottom;labelPosition=center;align=center;html=1;outlineConnect=0;fillColor=#CCCCCC;strokeColor=#6881B3;gradientColor=none;gradientDirection=north;strokeWidth=2;shape=mxgraph.networks.radio_tower;" vertex="1" parent="1">
          <mxGeometry x="900" y="455" width="45" height="70" as="geometry" />
        </mxCell>
        <mxCell id="zFpNvDhwyOPX7l_msYlm-87" value="" style="fontColor=#0066CC;verticalAlign=top;verticalLabelPosition=bottom;labelPosition=center;align=center;html=1;outlineConnect=0;fillColor=#CCCCCC;strokeColor=#6881B3;gradientColor=none;gradientDirection=north;strokeWidth=2;shape=mxgraph.networks.radio_tower;" vertex="1" parent="1">
          <mxGeometry x="220" y="-130" width="45" height="70" as="geometry" />
        </mxCell>
        <mxCell id="zFpNvDhwyOPX7l_msYlm-88" value="" style="fontColor=#0066CC;verticalAlign=top;verticalLabelPosition=bottom;labelPosition=center;align=center;html=1;outlineConnect=0;fillColor=#CCCCCC;strokeColor=#6881B3;gradientColor=none;gradientDirection=north;strokeWidth=2;shape=mxgraph.networks.radio_tower;" vertex="1" parent="1">
          <mxGeometry x="180" y="-210" width="45" height="70" as="geometry" />
        </mxCell>
        <mxCell id="zFpNvDhwyOPX7l_msYlm-89" value="" style="fontColor=#0066CC;verticalAlign=top;verticalLabelPosition=bottom;labelPosition=center;align=center;html=1;outlineConnect=0;fillColor=#CCCCCC;strokeColor=#6881B3;gradientColor=none;gradientDirection=north;strokeWidth=2;shape=mxgraph.networks.radio_tower;" vertex="1" parent="1">
          <mxGeometry x="332.5" y="-200" width="45" height="70" as="geometry" />
        </mxCell>
        <mxCell id="zFpNvDhwyOPX7l_msYlm-90" value="" style="fontColor=#0066CC;verticalAlign=top;verticalLabelPosition=bottom;labelPosition=center;align=center;html=1;outlineConnect=0;fillColor=#CCCCCC;strokeColor=#6881B3;gradientColor=none;gradientDirection=north;strokeWidth=2;shape=mxgraph.networks.radio_tower;" vertex="1" parent="1">
          <mxGeometry x="240" y="-220" width="45" height="70" as="geometry" />
        </mxCell>
        <mxCell id="zFpNvDhwyOPX7l_msYlm-91" value="" style="fontColor=#0066CC;verticalAlign=top;verticalLabelPosition=bottom;labelPosition=center;align=center;html=1;outlineConnect=0;fillColor=#CCCCCC;strokeColor=#6881B3;gradientColor=none;gradientDirection=north;strokeWidth=2;shape=mxgraph.networks.radio_tower;" vertex="1" parent="1">
          <mxGeometry x="280" y="-140" width="45" height="70" as="geometry" />
        </mxCell>
        <mxCell id="zFpNvDhwyOPX7l_msYlm-92" value="" style="fontColor=#0066CC;verticalAlign=top;verticalLabelPosition=bottom;labelPosition=center;align=center;html=1;outlineConnect=0;fillColor=#CCCCCC;strokeColor=#6881B3;gradientColor=none;gradientDirection=north;strokeWidth=2;shape=mxgraph.networks.radio_tower;" vertex="1" parent="1">
          <mxGeometry x="332.5" y="-120" width="45" height="70" as="geometry" />
        </mxCell>
        <mxCell id="zFpNvDhwyOPX7l_msYlm-93" value="" style="fontColor=#0066CC;verticalAlign=top;verticalLabelPosition=bottom;labelPosition=center;align=center;html=1;outlineConnect=0;fillColor=#CCCCCC;strokeColor=#6881B3;gradientColor=none;gradientDirection=north;strokeWidth=2;shape=mxgraph.networks.radio_tower;" vertex="1" parent="1">
          <mxGeometry x="415" y="-210" width="45" height="70" as="geometry" />
        </mxCell>
        <mxCell id="zFpNvDhwyOPX7l_msYlm-94" value="" style="fontColor=#0066CC;verticalAlign=top;verticalLabelPosition=bottom;labelPosition=center;align=center;html=1;outlineConnect=0;fillColor=#CCCCCC;strokeColor=#6881B3;gradientColor=none;gradientDirection=north;strokeWidth=2;shape=mxgraph.networks.radio_tower;" vertex="1" parent="1">
          <mxGeometry x="382.5" y="-140" width="45" height="70" as="geometry" />
        </mxCell>
        <mxCell id="zFpNvDhwyOPX7l_msYlm-95" value="" style="fontColor=#0066CC;verticalAlign=top;verticalLabelPosition=bottom;labelPosition=center;align=center;html=1;outlineConnect=0;fillColor=#CCCCCC;strokeColor=#6881B3;gradientColor=none;gradientDirection=north;strokeWidth=2;shape=mxgraph.networks.radio_tower;" vertex="1" parent="1">
          <mxGeometry x="460" y="-180" width="45" height="70" as="geometry" />
        </mxCell>
        <mxCell id="zFpNvDhwyOPX7l_msYlm-96" value="" style="fontColor=#0066CC;verticalAlign=top;verticalLabelPosition=bottom;labelPosition=center;align=center;html=1;outlineConnect=0;fillColor=#CCCCCC;strokeColor=#6881B3;gradientColor=none;gradientDirection=north;strokeWidth=2;shape=mxgraph.networks.radio_tower;" vertex="1" parent="1">
          <mxGeometry x="160" y="-120" width="45" height="70" as="geometry" />
        </mxCell>
        <mxCell id="zFpNvDhwyOPX7l_msYlm-97" value="" style="fontColor=#0066CC;verticalAlign=top;verticalLabelPosition=bottom;labelPosition=center;align=center;html=1;outlineConnect=0;fillColor=#CCCCCC;strokeColor=#6881B3;gradientColor=none;gradientDirection=north;strokeWidth=2;shape=mxgraph.networks.radio_tower;" vertex="1" parent="1">
          <mxGeometry x="435" y="-110" width="45" height="70" as="geometry" />
        </mxCell>
        <mxCell id="zFpNvDhwyOPX7l_msYlm-98" value="" style="fontColor=#0066CC;verticalAlign=top;verticalLabelPosition=bottom;labelPosition=center;align=center;html=1;outlineConnect=0;fillColor=#CCCCCC;strokeColor=#6881B3;gradientColor=none;gradientDirection=north;strokeWidth=2;shape=mxgraph.networks.radio_tower;" vertex="1" parent="1">
          <mxGeometry x="515" y="-220" width="45" height="70" as="geometry" />
        </mxCell>
        <mxCell id="zFpNvDhwyOPX7l_msYlm-99" value="" style="fontColor=#0066CC;verticalAlign=top;verticalLabelPosition=bottom;labelPosition=center;align=center;html=1;outlineConnect=0;fillColor=#CCCCCC;strokeColor=#6881B3;gradientColor=none;gradientDirection=north;strokeWidth=2;shape=mxgraph.networks.radio_tower;" vertex="1" parent="1">
          <mxGeometry x="505" y="-140" width="45" height="70" as="geometry" />
        </mxCell>
        <mxCell id="zFpNvDhwyOPX7l_msYlm-100" value="" style="fontColor=#0066CC;verticalAlign=top;verticalLabelPosition=bottom;labelPosition=center;align=center;html=1;outlineConnect=0;fillColor=#CCCCCC;strokeColor=#6881B3;gradientColor=none;gradientDirection=north;strokeWidth=2;shape=mxgraph.networks.radio_tower;" vertex="1" parent="1">
          <mxGeometry x="560" y="-130" width="45" height="70" as="geometry" />
        </mxCell>
        <mxCell id="zFpNvDhwyOPX7l_msYlm-103" value="" style="fontColor=#0066CC;verticalAlign=top;verticalLabelPosition=bottom;labelPosition=center;align=center;html=1;outlineConnect=0;fillColor=#CCCCCC;strokeColor=#6881B3;gradientColor=none;gradientDirection=north;strokeWidth=2;shape=mxgraph.networks.radio_tower;" vertex="1" parent="1">
          <mxGeometry x="590" y="-210" width="45" height="70" as="geometry" />
        </mxCell>
        <mxCell id="zFpNvDhwyOPX7l_msYlm-104" value="" style="fontColor=#0066CC;verticalAlign=top;verticalLabelPosition=bottom;labelPosition=center;align=center;html=1;outlineConnect=0;fillColor=#CCCCCC;strokeColor=#6881B3;gradientColor=none;gradientDirection=north;strokeWidth=2;shape=mxgraph.networks.radio_tower;" vertex="1" parent="1">
          <mxGeometry x="285" y="-210" width="45" height="70" as="geometry" />
        </mxCell>
        <mxCell id="zFpNvDhwyOPX7l_msYlm-106" value="" style="fontColor=#0066CC;verticalAlign=top;verticalLabelPosition=bottom;labelPosition=center;align=center;html=1;outlineConnect=0;fillColor=#CCCCCC;strokeColor=#6881B3;gradientColor=none;gradientDirection=north;strokeWidth=2;shape=mxgraph.networks.radio_tower;" vertex="1" parent="1">
          <mxGeometry x="369" y="-220" width="45" height="70" as="geometry" />
        </mxCell>
        <mxCell id="zFpNvDhwyOPX7l_msYlm-107" value="" style="fontColor=#0066CC;verticalAlign=top;verticalLabelPosition=bottom;labelPosition=center;align=center;html=1;outlineConnect=0;fillColor=#CCCCCC;strokeColor=#6881B3;gradientColor=none;gradientDirection=north;strokeWidth=2;shape=mxgraph.networks.radio_tower;" vertex="1" parent="1">
          <mxGeometry x="605" y="-110" width="45" height="70" as="geometry" />
        </mxCell>
        <mxCell id="zFpNvDhwyOPX7l_msYlm-108" value="" style="fontColor=#0066CC;verticalAlign=top;verticalLabelPosition=bottom;labelPosition=center;align=center;html=1;outlineConnect=0;fillColor=#CCCCCC;strokeColor=#6881B3;gradientColor=none;gradientDirection=north;strokeWidth=2;shape=mxgraph.networks.radio_tower;" vertex="1" parent="1">
          <mxGeometry x="635" y="-180" width="45" height="70" as="geometry" />
        </mxCell>
        <mxCell id="zFpNvDhwyOPX7l_msYlm-109" value="" style="fontColor=#0066CC;verticalAlign=top;verticalLabelPosition=bottom;labelPosition=center;align=center;html=1;outlineConnect=0;fillColor=#CCCCCC;strokeColor=#6881B3;gradientColor=none;gradientDirection=north;strokeWidth=2;shape=mxgraph.networks.radio_tower;" vertex="1" parent="1">
          <mxGeometry x="685" y="-210" width="45" height="70" as="geometry" />
        </mxCell>
        <mxCell id="zFpNvDhwyOPX7l_msYlm-110" value="" style="fontColor=#0066CC;verticalAlign=top;verticalLabelPosition=bottom;labelPosition=center;align=center;html=1;outlineConnect=0;fillColor=#CCCCCC;strokeColor=#6881B3;gradientColor=none;gradientDirection=north;strokeWidth=2;shape=mxgraph.networks.radio_tower;" vertex="1" parent="1">
          <mxGeometry x="680" y="-130" width="45" height="70" as="geometry" />
        </mxCell>
        <mxCell id="zFpNvDhwyOPX7l_msYlm-111" value="" style="fontColor=#0066CC;verticalAlign=top;verticalLabelPosition=bottom;labelPosition=center;align=center;html=1;outlineConnect=0;fillColor=#CCCCCC;strokeColor=#6881B3;gradientColor=none;gradientDirection=north;strokeWidth=2;shape=mxgraph.networks.radio_tower;" vertex="1" parent="1">
          <mxGeometry x="685" y="94.38" width="45" height="70" as="geometry" />
        </mxCell>
        <mxCell id="zFpNvDhwyOPX7l_msYlm-112" value="" style="fontColor=#0066CC;verticalAlign=top;verticalLabelPosition=bottom;labelPosition=center;align=center;html=1;outlineConnect=0;fillColor=#CCCCCC;strokeColor=#6881B3;gradientColor=none;gradientDirection=north;strokeWidth=2;shape=mxgraph.networks.radio_tower;" vertex="1" parent="1">
          <mxGeometry x="685" y="-50" width="45" height="70" as="geometry" />
        </mxCell>
        <mxCell id="zFpNvDhwyOPX7l_msYlm-113" value="" style="fontColor=#0066CC;verticalAlign=top;verticalLabelPosition=bottom;labelPosition=center;align=center;html=1;outlineConnect=0;fillColor=#CCCCCC;strokeColor=#6881B3;gradientColor=none;gradientDirection=north;strokeWidth=2;shape=mxgraph.networks.radio_tower;" vertex="1" parent="1">
          <mxGeometry x="792.5" y="-8.75" width="45" height="70" as="geometry" />
        </mxCell>
        <mxCell id="zFpNvDhwyOPX7l_msYlm-114" value="" style="fontColor=#0066CC;verticalAlign=top;verticalLabelPosition=bottom;labelPosition=center;align=center;html=1;outlineConnect=0;fillColor=#CCCCCC;strokeColor=#6881B3;gradientColor=none;gradientDirection=north;strokeWidth=2;shape=mxgraph.networks.radio_tower;" vertex="1" parent="1">
          <mxGeometry x="745" y="-90" width="45" height="70" as="geometry" />
        </mxCell>
        <mxCell id="zFpNvDhwyOPX7l_msYlm-115" value="" style="fontColor=#0066CC;verticalAlign=top;verticalLabelPosition=bottom;labelPosition=center;align=center;html=1;outlineConnect=0;fillColor=#CCCCCC;strokeColor=#6881B3;gradientColor=none;gradientDirection=north;strokeWidth=2;shape=mxgraph.networks.radio_tower;" vertex="1" parent="1">
          <mxGeometry x="745" y="-170" width="45" height="70" as="geometry" />
        </mxCell>
        <mxCell id="zFpNvDhwyOPX7l_msYlm-116" value="" style="fontColor=#0066CC;verticalAlign=top;verticalLabelPosition=bottom;labelPosition=center;align=center;html=1;outlineConnect=0;fillColor=#CCCCCC;strokeColor=#6881B3;gradientColor=none;gradientDirection=north;strokeWidth=2;shape=mxgraph.networks.radio_tower;" vertex="1" parent="1">
          <mxGeometry x="800" y="-130" width="45" height="70" as="geometry" />
        </mxCell>
        <mxCell id="zFpNvDhwyOPX7l_msYlm-117" value="" style="fontColor=#0066CC;verticalAlign=top;verticalLabelPosition=bottom;labelPosition=center;align=center;html=1;outlineConnect=0;fillColor=#CCCCCC;strokeColor=#6881B3;gradientColor=none;gradientDirection=north;strokeWidth=2;shape=mxgraph.networks.radio_tower;" vertex="1" parent="1">
          <mxGeometry x="800" y="-210" width="45" height="70" as="geometry" />
        </mxCell>
        <mxCell id="zFpNvDhwyOPX7l_msYlm-118" value="" style="fontColor=#0066CC;verticalAlign=top;verticalLabelPosition=bottom;labelPosition=center;align=center;html=1;outlineConnect=0;fillColor=#CCCCCC;strokeColor=#6881B3;gradientColor=none;gradientDirection=north;strokeWidth=2;shape=mxgraph.networks.radio_tower;" vertex="1" parent="1">
          <mxGeometry x="845" y="-70" width="45" height="70" as="geometry" />
        </mxCell>
        <mxCell id="zFpNvDhwyOPX7l_msYlm-119" value="" style="fontColor=#0066CC;verticalAlign=top;verticalLabelPosition=bottom;labelPosition=center;align=center;html=1;outlineConnect=0;fillColor=#CCCCCC;strokeColor=#6881B3;gradientColor=none;gradientDirection=north;strokeWidth=2;shape=mxgraph.networks.radio_tower;" vertex="1" parent="1">
          <mxGeometry x="905" y="-50" width="45" height="70" as="geometry" />
        </mxCell>
        <mxCell id="zFpNvDhwyOPX7l_msYlm-121" value="" style="fontColor=#0066CC;verticalAlign=top;verticalLabelPosition=bottom;labelPosition=center;align=center;html=1;outlineConnect=0;fillColor=#CCCCCC;strokeColor=#6881B3;gradientColor=none;gradientDirection=north;strokeWidth=2;shape=mxgraph.networks.radio_tower;" vertex="1" parent="1">
          <mxGeometry x="860" y="-140" width="45" height="70" as="geometry" />
        </mxCell>
        <mxCell id="zFpNvDhwyOPX7l_msYlm-122" value="" style="fontColor=#0066CC;verticalAlign=top;verticalLabelPosition=bottom;labelPosition=center;align=center;html=1;outlineConnect=0;fillColor=#CCCCCC;strokeColor=#6881B3;gradientColor=none;gradientDirection=north;strokeWidth=2;shape=mxgraph.networks.radio_tower;" vertex="1" parent="1">
          <mxGeometry x="905" y="-120" width="45" height="70" as="geometry" />
        </mxCell>
        <mxCell id="zFpNvDhwyOPX7l_msYlm-123" value="" style="fontColor=#0066CC;verticalAlign=top;verticalLabelPosition=bottom;labelPosition=center;align=center;html=1;outlineConnect=0;fillColor=#CCCCCC;strokeColor=#6881B3;gradientColor=none;gradientDirection=north;strokeWidth=2;shape=mxgraph.networks.radio_tower;" vertex="1" parent="1">
          <mxGeometry x="905" y="-210" width="45" height="70" as="geometry" />
        </mxCell>
        <mxCell id="zFpNvDhwyOPX7l_msYlm-124" value="" style="fontColor=#0066CC;verticalAlign=top;verticalLabelPosition=bottom;labelPosition=center;align=center;html=1;outlineConnect=0;fillColor=#CCCCCC;strokeColor=#6881B3;gradientColor=none;gradientDirection=north;strokeWidth=2;shape=mxgraph.networks.radio_tower;" vertex="1" parent="1">
          <mxGeometry x="855" y="-210" width="45" height="70" as="geometry" />
        </mxCell>
        <mxCell id="zFpNvDhwyOPX7l_msYlm-125" value="" style="fontColor=#0066CC;verticalAlign=top;verticalLabelPosition=bottom;labelPosition=center;align=center;html=1;outlineConnect=0;fillColor=#CCCCCC;strokeColor=#6881B3;gradientColor=none;gradientDirection=north;strokeWidth=2;shape=mxgraph.networks.radio_tower;" vertex="1" parent="1">
          <mxGeometry x="851" y="293" width="45" height="70" as="geometry" />
        </mxCell>
        <mxCell id="zFpNvDhwyOPX7l_msYlm-126" value="" style="fontColor=#0066CC;verticalAlign=top;verticalLabelPosition=bottom;labelPosition=center;align=center;html=1;outlineConnect=0;fillColor=#CCCCCC;strokeColor=#6881B3;gradientColor=none;gradientDirection=north;strokeWidth=2;shape=mxgraph.networks.radio_tower;" vertex="1" parent="1">
          <mxGeometry x="700" y="185" width="45" height="70" as="geometry" />
        </mxCell>
        <mxCell id="zFpNvDhwyOPX7l_msYlm-127" value="" style="fontColor=#0066CC;verticalAlign=top;verticalLabelPosition=bottom;labelPosition=center;align=center;html=1;outlineConnect=0;fillColor=#CCCCCC;strokeColor=#6881B3;gradientColor=none;gradientDirection=north;strokeWidth=2;shape=mxgraph.networks.radio_tower;" vertex="1" parent="1">
          <mxGeometry x="790" y="270" width="45" height="70" as="geometry" />
        </mxCell>
        <mxCell id="zFpNvDhwyOPX7l_msYlm-128" value="" style="fontColor=#0066CC;verticalAlign=top;verticalLabelPosition=bottom;labelPosition=center;align=center;html=1;outlineConnect=0;fillColor=#CCCCCC;strokeColor=#6881B3;gradientColor=none;gradientDirection=north;strokeWidth=2;shape=mxgraph.networks.radio_tower;" vertex="1" parent="1">
          <mxGeometry x="855" y="220" width="45" height="70" as="geometry" />
        </mxCell>
        <mxCell id="zFpNvDhwyOPX7l_msYlm-129" value="" style="fontColor=#0066CC;verticalAlign=top;verticalLabelPosition=bottom;labelPosition=center;align=center;html=1;outlineConnect=0;fillColor=#CCCCCC;strokeColor=#6881B3;gradientColor=none;gradientDirection=north;strokeWidth=2;shape=mxgraph.networks.radio_tower;" vertex="1" parent="1">
          <mxGeometry x="905" y="320" width="45" height="70" as="geometry" />
        </mxCell>
        <mxCell id="zFpNvDhwyOPX7l_msYlm-130" value="" style="fontColor=#0066CC;verticalAlign=top;verticalLabelPosition=bottom;labelPosition=center;align=center;html=1;outlineConnect=0;fillColor=#CCCCCC;strokeColor=#6881B3;gradientColor=none;gradientDirection=north;strokeWidth=2;shape=mxgraph.networks.radio_tower;" vertex="1" parent="1">
          <mxGeometry x="905" y="550" width="45" height="70" as="geometry" />
        </mxCell>
        <mxCell id="zFpNvDhwyOPX7l_msYlm-131" value="" style="fontColor=#0066CC;verticalAlign=top;verticalLabelPosition=bottom;labelPosition=center;align=center;html=1;outlineConnect=0;fillColor=#CCCCCC;strokeColor=#6881B3;gradientColor=none;gradientDirection=north;strokeWidth=2;shape=mxgraph.networks.radio_tower;" vertex="1" parent="1">
          <mxGeometry x="315" y="470" width="45" height="70" as="geometry" />
        </mxCell>
        <mxCell id="zFpNvDhwyOPX7l_msYlm-132" value="" style="fontColor=#0066CC;verticalAlign=top;verticalLabelPosition=bottom;labelPosition=center;align=center;html=1;outlineConnect=0;fillColor=#CCCCCC;strokeColor=#6881B3;gradientColor=none;gradientDirection=north;strokeWidth=2;shape=mxgraph.networks.radio_tower;" vertex="1" parent="1">
          <mxGeometry x="270" y="550" width="45" height="70" as="geometry" />
        </mxCell>
        <mxCell id="zFpNvDhwyOPX7l_msYlm-134" style="edgeStyle=orthogonalEdgeStyle;curved=1;rounded=0;orthogonalLoop=1;jettySize=auto;html=1;startArrow=classic;startFill=1;endArrow=none;endFill=0;" edge="1" parent="1" source="zFpNvDhwyOPX7l_msYlm-10">
          <mxGeometry relative="1" as="geometry">
            <mxPoint x="280" y="-40" as="targetPoint" />
            <mxPoint x="410" y="20" as="sourcePoint" />
          </mxGeometry>
        </mxCell>
        <mxCell id="zFpNvDhwyOPX7l_msYlm-135" style="edgeStyle=orthogonalEdgeStyle;curved=1;rounded=0;orthogonalLoop=1;jettySize=auto;html=1;startArrow=classic;startFill=1;endArrow=none;endFill=0;" edge="1" parent="1" source="zFpNvDhwyOPX7l_msYlm-10">
          <mxGeometry relative="1" as="geometry">
            <mxPoint x="320" y="-40" as="targetPoint" />
            <mxPoint x="295" y="20" as="sourcePoint" />
            <Array as="points">
              <mxPoint x="245" y="11" />
              <mxPoint x="330" y="11" />
              <mxPoint x="330" y="-15" />
              <mxPoint x="320" y="-15" />
            </Array>
          </mxGeometry>
        </mxCell>
        <mxCell id="zFpNvDhwyOPX7l_msYlm-136" style="edgeStyle=orthogonalEdgeStyle;curved=1;rounded=0;orthogonalLoop=1;jettySize=auto;html=1;startArrow=classic;startFill=1;endArrow=none;endFill=0;" edge="1" parent="1" source="zFpNvDhwyOPX7l_msYlm-10">
          <mxGeometry relative="1" as="geometry">
            <mxPoint x="240" y="-40" as="targetPoint" />
            <mxPoint x="305" y="30" as="sourcePoint" />
          </mxGeometry>
        </mxCell>
        <mxCell id="zFpNvDhwyOPX7l_msYlm-137" style="edgeStyle=orthogonalEdgeStyle;curved=1;rounded=0;orthogonalLoop=1;jettySize=auto;html=1;startArrow=classic;startFill=1;endArrow=none;endFill=0;" edge="1" parent="1" source="zFpNvDhwyOPX7l_msYlm-9">
          <mxGeometry relative="1" as="geometry">
            <mxPoint x="340" y="-40" as="targetPoint" />
            <mxPoint x="315" y="40" as="sourcePoint" />
            <Array as="points">
              <mxPoint x="400" y="-40" />
            </Array>
          </mxGeometry>
        </mxCell>
        <mxCell id="zFpNvDhwyOPX7l_msYlm-138" style="edgeStyle=orthogonalEdgeStyle;curved=1;rounded=0;orthogonalLoop=1;jettySize=auto;html=1;startArrow=classic;startFill=1;endArrow=none;endFill=0;" edge="1" parent="1">
          <mxGeometry relative="1" as="geometry">
            <mxPoint x="400" y="-40" as="targetPoint" />
            <mxPoint x="400" y="30" as="sourcePoint" />
          </mxGeometry>
        </mxCell>
        <mxCell id="zFpNvDhwyOPX7l_msYlm-139" style="edgeStyle=orthogonalEdgeStyle;curved=1;rounded=0;orthogonalLoop=1;jettySize=auto;html=1;startArrow=classic;startFill=1;endArrow=none;endFill=0;" edge="1" parent="1" source="zFpNvDhwyOPX7l_msYlm-9" target="zFpNvDhwyOPX7l_msYlm-97">
          <mxGeometry relative="1" as="geometry">
            <mxPoint x="330" y="10" as="targetPoint" />
            <mxPoint x="335" y="60" as="sourcePoint" />
            <Array as="points">
              <mxPoint x="400" y="-20" />
              <mxPoint x="458" y="-20" />
            </Array>
          </mxGeometry>
        </mxCell>
        <mxCell id="zFpNvDhwyOPX7l_msYlm-140" style="edgeStyle=orthogonalEdgeStyle;curved=1;rounded=0;orthogonalLoop=1;jettySize=auto;html=1;startArrow=classic;startFill=1;endArrow=none;endFill=0;" edge="1" parent="1">
          <mxGeometry relative="1" as="geometry">
            <mxPoint x="490" y="-40" as="targetPoint" />
            <mxPoint x="400" y="30" as="sourcePoint" />
            <Array as="points">
              <mxPoint x="400" y="20" />
              <mxPoint x="440" y="20" />
              <mxPoint x="440" y="-20" />
              <mxPoint x="490" y="-20" />
            </Array>
          </mxGeometry>
        </mxCell>
        <mxCell id="zFpNvDhwyOPX7l_msYlm-141" style="edgeStyle=orthogonalEdgeStyle;curved=1;rounded=0;orthogonalLoop=1;jettySize=auto;html=1;startArrow=classic;startFill=1;endArrow=none;endFill=0;" edge="1" parent="1" source="zFpNvDhwyOPX7l_msYlm-12">
          <mxGeometry relative="1" as="geometry">
            <mxPoint x="550" y="-40" as="targetPoint" />
            <mxPoint x="410" y="40" as="sourcePoint" />
            <Array as="points">
              <mxPoint x="560" y="-40" />
            </Array>
          </mxGeometry>
        </mxCell>
        <mxCell id="zFpNvDhwyOPX7l_msYlm-142" style="edgeStyle=orthogonalEdgeStyle;curved=1;rounded=0;orthogonalLoop=1;jettySize=auto;html=1;startArrow=classic;startFill=1;endArrow=none;endFill=0;entryX=0.09;entryY=1;entryDx=0;entryDy=0;entryPerimeter=0;" edge="1" parent="1" source="zFpNvDhwyOPX7l_msYlm-12" target="zFpNvDhwyOPX7l_msYlm-107">
          <mxGeometry relative="1" as="geometry">
            <mxPoint x="560" y="-30" as="targetPoint" />
            <mxPoint x="570" y="40" as="sourcePoint" />
            <Array as="points">
              <mxPoint x="560" y="-30" />
              <mxPoint x="609" y="-30" />
            </Array>
          </mxGeometry>
        </mxCell>
        <mxCell id="zFpNvDhwyOPX7l_msYlm-143" style="edgeStyle=orthogonalEdgeStyle;curved=1;rounded=0;orthogonalLoop=1;jettySize=auto;html=1;startArrow=classic;startFill=1;endArrow=none;endFill=0;" edge="1" parent="1" source="zFpNvDhwyOPX7l_msYlm-12">
          <mxGeometry relative="1" as="geometry">
            <mxPoint x="520" y="-40" as="targetPoint" />
            <mxPoint x="570" y="40" as="sourcePoint" />
            <Array as="points">
              <mxPoint x="560" y="-20" />
              <mxPoint x="530" y="-20" />
              <mxPoint x="530" y="-40" />
            </Array>
          </mxGeometry>
        </mxCell>
        <mxCell id="zFpNvDhwyOPX7l_msYlm-144" style="edgeStyle=orthogonalEdgeStyle;curved=1;rounded=0;orthogonalLoop=1;jettySize=auto;html=1;startArrow=classic;startFill=1;endArrow=none;endFill=0;entryX=0.91;entryY=1;entryDx=0;entryDy=0;entryPerimeter=0;" edge="1" parent="1" source="zFpNvDhwyOPX7l_msYlm-12" target="zFpNvDhwyOPX7l_msYlm-107">
          <mxGeometry relative="1" as="geometry">
            <mxPoint x="560" y="-30" as="targetPoint" />
            <mxPoint x="570" y="40" as="sourcePoint" />
            <Array as="points">
              <mxPoint x="560" y="-20" />
              <mxPoint x="646" y="-20" />
            </Array>
          </mxGeometry>
        </mxCell>
        <mxCell id="zFpNvDhwyOPX7l_msYlm-145" style="edgeStyle=orthogonalEdgeStyle;curved=1;rounded=0;orthogonalLoop=1;jettySize=auto;html=1;startArrow=classic;startFill=1;endArrow=none;endFill=0;" edge="1" parent="1" source="zFpNvDhwyOPX7l_msYlm-12">
          <mxGeometry relative="1" as="geometry">
            <mxPoint x="680" as="targetPoint" />
            <mxPoint x="570" y="40" as="sourcePoint" />
            <Array as="points">
              <mxPoint x="650" y="81" />
              <mxPoint x="650" />
            </Array>
          </mxGeometry>
        </mxCell>
        <mxCell id="zFpNvDhwyOPX7l_msYlm-146" style="edgeStyle=orthogonalEdgeStyle;curved=1;rounded=0;orthogonalLoop=1;jettySize=auto;html=1;startArrow=classic;startFill=1;endArrow=none;endFill=0;" edge="1" parent="1" source="zFpNvDhwyOPX7l_msYlm-12">
          <mxGeometry relative="1" as="geometry">
            <mxPoint x="680" y="80" as="targetPoint" />
            <mxPoint x="620" y="91" as="sourcePoint" />
            <Array as="points">
              <mxPoint x="660" y="81" />
              <mxPoint x="680" y="80" />
            </Array>
          </mxGeometry>
        </mxCell>
        <mxCell id="zFpNvDhwyOPX7l_msYlm-147" style="edgeStyle=orthogonalEdgeStyle;curved=1;rounded=0;orthogonalLoop=1;jettySize=auto;html=1;startArrow=classic;startFill=1;endArrow=none;endFill=0;" edge="1" parent="1">
          <mxGeometry relative="1" as="geometry">
            <mxPoint x="680" y="50" as="targetPoint" />
            <mxPoint x="610" y="80" as="sourcePoint" />
            <Array as="points">
              <mxPoint x="670" y="80" />
              <mxPoint x="670" y="50" />
            </Array>
          </mxGeometry>
        </mxCell>
        <mxCell id="zFpNvDhwyOPX7l_msYlm-148" style="edgeStyle=orthogonalEdgeStyle;curved=1;rounded=0;orthogonalLoop=1;jettySize=auto;html=1;startArrow=classic;startFill=1;endArrow=none;endFill=0;" edge="1" parent="1">
          <mxGeometry relative="1" as="geometry">
            <mxPoint x="680" y="120" as="targetPoint" />
            <mxPoint x="610" y="80" as="sourcePoint" />
            <Array as="points">
              <mxPoint x="670" y="80" />
              <mxPoint x="670" y="120" />
            </Array>
          </mxGeometry>
        </mxCell>
        <mxCell id="zFpNvDhwyOPX7l_msYlm-151" style="edgeStyle=orthogonalEdgeStyle;curved=1;rounded=0;orthogonalLoop=1;jettySize=auto;html=1;startArrow=classic;startFill=1;endArrow=none;endFill=0;" edge="1" parent="1" source="zFpNvDhwyOPX7l_msYlm-13">
          <mxGeometry relative="1" as="geometry">
            <mxPoint x="680" y="230" as="targetPoint" />
            <mxPoint x="630" y="100" as="sourcePoint" />
            <Array as="points">
              <mxPoint x="680" y="200" />
            </Array>
          </mxGeometry>
        </mxCell>
        <mxCell id="zFpNvDhwyOPX7l_msYlm-152" style="edgeStyle=orthogonalEdgeStyle;curved=1;rounded=0;orthogonalLoop=1;jettySize=auto;html=1;startArrow=classic;startFill=1;endArrow=none;endFill=0;" edge="1" parent="1" source="zFpNvDhwyOPX7l_msYlm-13">
          <mxGeometry relative="1" as="geometry">
            <mxPoint x="680" y="170" as="targetPoint" />
            <mxPoint x="620" y="210" as="sourcePoint" />
            <Array as="points">
              <mxPoint x="660" y="200" />
              <mxPoint x="660" y="170" />
            </Array>
          </mxGeometry>
        </mxCell>
        <mxCell id="zFpNvDhwyOPX7l_msYlm-153" style="edgeStyle=orthogonalEdgeStyle;curved=1;rounded=0;orthogonalLoop=1;jettySize=auto;html=1;startArrow=classic;startFill=1;endArrow=none;endFill=0;" edge="1" parent="1" source="zFpNvDhwyOPX7l_msYlm-13">
          <mxGeometry relative="1" as="geometry">
            <mxPoint x="680" y="250" as="targetPoint" />
            <mxPoint x="630" y="220" as="sourcePoint" />
            <Array as="points">
              <mxPoint x="650" y="200" />
              <mxPoint x="650" y="250" />
            </Array>
          </mxGeometry>
        </mxCell>
        <mxCell id="zFpNvDhwyOPX7l_msYlm-155" style="edgeStyle=orthogonalEdgeStyle;curved=1;rounded=0;orthogonalLoop=1;jettySize=auto;html=1;startArrow=classic;startFill=1;endArrow=none;endFill=0;" edge="1" parent="1" source="zFpNvDhwyOPX7l_msYlm-13">
          <mxGeometry relative="1" as="geometry">
            <mxPoint x="680" y="280" as="targetPoint" />
            <mxPoint x="620" y="210" as="sourcePoint" />
            <Array as="points">
              <mxPoint x="640" y="200" />
              <mxPoint x="640" y="250" />
              <mxPoint x="670" y="250" />
              <mxPoint x="670" y="280" />
              <mxPoint x="680" y="280" />
            </Array>
          </mxGeometry>
        </mxCell>
        <mxCell id="zFpNvDhwyOPX7l_msYlm-157" style="edgeStyle=orthogonalEdgeStyle;curved=1;rounded=0;orthogonalLoop=1;jettySize=auto;html=1;startArrow=classic;startFill=1;endArrow=none;endFill=0;" edge="1" parent="1" source="zFpNvDhwyOPX7l_msYlm-13">
          <mxGeometry relative="1" as="geometry">
            <mxPoint x="680" y="150" as="targetPoint" />
            <mxPoint x="620" y="210" as="sourcePoint" />
            <Array as="points">
              <mxPoint x="640" y="200" />
              <mxPoint x="640" y="150" />
              <mxPoint x="690" y="150" />
            </Array>
          </mxGeometry>
        </mxCell>
        <mxCell id="zFpNvDhwyOPX7l_msYlm-159" style="edgeStyle=orthogonalEdgeStyle;curved=1;rounded=0;orthogonalLoop=1;jettySize=auto;html=1;startArrow=classic;startFill=1;endArrow=none;endFill=0;" edge="1" parent="1" source="zFpNvDhwyOPX7l_msYlm-14">
          <mxGeometry relative="1" as="geometry">
            <mxPoint x="680" y="430" as="targetPoint" />
            <mxPoint x="620" y="210" as="sourcePoint" />
            <Array as="points">
              <mxPoint x="650" y="320" />
              <mxPoint x="650" y="430" />
            </Array>
          </mxGeometry>
        </mxCell>
        <mxCell id="zFpNvDhwyOPX7l_msYlm-160" style="edgeStyle=orthogonalEdgeStyle;curved=1;rounded=0;orthogonalLoop=1;jettySize=auto;html=1;startArrow=classic;startFill=1;endArrow=none;endFill=0;" edge="1" parent="1" source="zFpNvDhwyOPX7l_msYlm-14">
          <mxGeometry relative="1" as="geometry">
            <mxPoint x="680" y="370" as="targetPoint" />
            <mxPoint x="620" y="330" as="sourcePoint" />
            <Array as="points">
              <mxPoint x="660" y="320" />
              <mxPoint x="660" y="370" />
            </Array>
          </mxGeometry>
        </mxCell>
        <mxCell id="zFpNvDhwyOPX7l_msYlm-161" style="edgeStyle=orthogonalEdgeStyle;curved=1;rounded=0;orthogonalLoop=1;jettySize=auto;html=1;startArrow=classic;startFill=1;endArrow=none;endFill=0;" edge="1" parent="1" source="zFpNvDhwyOPX7l_msYlm-14">
          <mxGeometry relative="1" as="geometry">
            <mxPoint x="680" y="340" as="targetPoint" />
            <mxPoint x="620" y="330" as="sourcePoint" />
            <Array as="points">
              <mxPoint x="680" y="320" />
            </Array>
          </mxGeometry>
        </mxCell>
        <mxCell id="zFpNvDhwyOPX7l_msYlm-163" style="edgeStyle=orthogonalEdgeStyle;curved=1;rounded=0;orthogonalLoop=1;jettySize=auto;html=1;startArrow=classic;startFill=1;endArrow=none;endFill=0;" edge="1" parent="1" source="zFpNvDhwyOPX7l_msYlm-14">
          <mxGeometry relative="1" as="geometry">
            <mxPoint x="680" y="300" as="targetPoint" />
            <mxPoint x="620" y="330" as="sourcePoint" />
            <Array as="points">
              <mxPoint x="660" y="320" />
              <mxPoint x="660" y="300" />
            </Array>
          </mxGeometry>
        </mxCell>
        <mxCell id="zFpNvDhwyOPX7l_msYlm-164" style="edgeStyle=orthogonalEdgeStyle;curved=1;rounded=0;orthogonalLoop=1;jettySize=auto;html=1;startArrow=classic;startFill=1;endArrow=none;endFill=0;" edge="1" parent="1" source="zFpNvDhwyOPX7l_msYlm-14">
          <mxGeometry relative="1" as="geometry">
            <mxPoint x="680" y="290" as="targetPoint" />
            <mxPoint x="620" y="330" as="sourcePoint" />
            <Array as="points">
              <mxPoint x="650" y="320" />
              <mxPoint x="650" y="290" />
            </Array>
          </mxGeometry>
        </mxCell>
      </root>
    </mxGraphModel>
  </diagram>
</mxfile>
